<svg width="624" height="159" viewBox="0 0 624 159" fill="none" xmlns="http://www.w3.org/2000/svg">
<path d="M210.485 33.9304H217.459L199.88 81.4581H189.628L172.048 33.9304H179.537L194.963 76.1915L210.485 33.9304Z" fill="#1D328D"/>
<path d="M251.167 82.0683C246.668 82.0683 242.768 81.1798 239.469 79.4029C236.191 77.6259 233.652 74.9284 231.852 71.3103C230.053 67.6708 229.153 63.1321 229.153 57.6943C229.153 52.2564 230.053 47.7285 231.852 44.1104C233.673 40.4708 236.223 37.7626 239.501 35.9857C242.801 34.2088 246.689 33.3203 251.167 33.3203C255.666 33.3203 259.566 34.2088 262.865 35.9857C266.165 37.7626 268.714 40.4708 270.514 44.1104C272.314 47.7499 273.214 52.2778 273.214 57.6943C273.214 63.1107 272.303 67.6387 270.482 71.2782C268.682 74.9177 266.133 77.6259 262.833 79.4029C259.534 81.1798 255.645 82.0683 251.167 82.0683ZM251.167 76.2237C255.859 76.2237 259.491 74.7464 262.062 71.792C264.654 68.8376 265.95 64.2026 265.95 57.887C265.95 51.4001 264.654 46.658 262.062 43.6608C259.491 40.6635 255.859 39.1649 251.167 39.1649C246.475 39.1649 242.843 40.6421 240.272 43.5965C237.701 46.5296 236.416 51.1646 236.416 57.5016C236.416 69.983 241.333 76.2237 251.167 76.2237Z" fill="#1D328D"/>
<path d="M310.448 57.0199L328.573 81.4581H320.539L306.206 62.1259L291.872 81.4581H283.998L302.092 57.1162L284.77 33.9304H292.836L306.334 52.0102L319.832 33.9304H327.641L310.448 57.0199Z" fill="#1D328D"/>
<path d="M374.624 81.4581L369.354 66.9429H348.561L343.29 81.4581H336.316L353.96 33.9304H364.051L381.727 81.4581H374.624ZM350.65 61.2589H367.265L358.973 38.3942L350.65 61.2589Z" fill="#1D328D"/>
<path d="M418.795 82.0683C411.082 82.0683 405.147 80.1308 400.99 76.2558C396.855 72.3594 394.788 66.2043 394.788 57.7906C394.788 49.6124 396.898 43.4895 401.119 39.4218C405.361 35.3541 411.424 33.3203 419.309 33.3203C423.058 33.3203 426.743 33.7806 430.364 34.7012V40.6421C426.872 39.7215 423.326 39.2613 419.727 39.2613C413.856 39.2613 409.464 40.7278 406.55 43.6608C403.636 46.5724 402.179 51.2395 402.179 57.6622C402.179 62.1152 402.844 65.7012 404.172 68.4201C405.5 71.1391 407.418 73.1087 409.925 74.329C412.453 75.5279 415.581 76.1273 419.309 76.1273C421.216 76.1273 423.048 75.9882 424.804 75.7098C426.583 75.4315 428.436 74.9819 430.364 74.3611V80.3021C426.829 81.4795 422.973 82.0683 418.795 82.0683Z" fill="#1D328D"/>
<path d="M468.169 82.0683C460.456 82.0683 454.521 80.1308 450.365 76.2558C446.23 72.3594 444.162 66.2043 444.162 57.7906C444.162 49.6124 446.272 43.4895 450.493 39.4218C454.735 35.3541 460.799 33.3203 468.683 33.3203C472.433 33.3203 476.118 33.7806 479.739 34.7012V40.6421C476.246 39.7215 472.7 39.2613 469.101 39.2613C463.23 39.2613 458.838 40.7278 455.924 43.6608C453.011 46.5724 451.554 51.2395 451.554 57.6622C451.554 62.1152 452.218 65.7012 453.546 68.4201C454.875 71.1391 456.792 73.1087 459.299 74.329C461.827 75.5279 464.955 76.1273 468.683 76.1273C470.59 76.1273 472.422 75.9882 474.179 75.7098C475.957 75.4315 477.81 74.9819 479.739 74.3611V80.3021C476.203 81.4795 472.347 82.0683 468.169 82.0683Z" fill="#1D328D"/>
<path d="M503.539 75.7741H529.442V81.4581H496.533V33.9304H529.121V39.6145H503.539V54.2582H525.875V59.9422H503.539V75.7741Z" fill="#1D328D"/>
<path d="M558.406 82.0683C556.157 82.0683 553.896 81.8863 551.625 81.5224C549.376 81.1798 547.254 80.6767 545.262 80.013V74.1684C547.319 74.8535 549.504 75.378 551.818 75.742C554.153 76.1059 556.36 76.2879 558.438 76.2879C562.338 76.2879 565.209 75.6349 567.051 74.329C568.894 73.023 569.815 71.0962 569.815 68.5486C569.815 67.1142 569.515 65.9367 568.915 65.0161C568.337 64.0741 567.383 63.282 566.055 62.6397C564.727 61.9975 562.916 61.4194 560.624 60.9056L557.539 60.1991C553.039 59.2143 549.718 57.6515 547.576 55.5106C545.433 53.3697 544.362 50.533 544.362 47.0006C544.362 44.1318 545.058 41.6805 546.451 39.6466C547.844 37.6128 549.933 36.0499 552.718 34.9581C555.525 33.8662 558.974 33.3203 563.066 33.3203C565.144 33.3203 567.169 33.4594 569.14 33.7378C571.133 33.9947 572.965 34.3693 574.636 34.8617V40.7063C571.165 39.6359 567.383 39.1007 563.291 39.1007C555.385 39.1007 551.432 41.6162 551.432 46.6473C551.432 48.0389 551.689 49.2057 552.204 50.1477C552.739 51.0682 553.607 51.8497 554.807 52.4919C556.028 53.1342 557.689 53.6908 559.788 54.1618L562.841 54.8683C567.748 55.9388 571.315 57.5444 573.543 59.6853C575.771 61.8048 576.886 64.6308 576.886 68.1632C576.886 71.0748 576.157 73.5797 574.7 75.6777C573.243 77.7544 571.133 79.3387 568.369 80.4305C565.605 81.5224 562.284 82.0683 558.406 82.0683Z" fill="#1D328D"/>
<path d="M605.521 82.0683C603.271 82.0683 601.011 81.8863 598.74 81.5224C596.49 81.1798 594.369 80.6767 592.376 80.013V74.1684C594.433 74.8535 596.619 75.378 598.933 75.742C601.268 76.1059 603.475 76.2879 605.553 76.2879C609.452 76.2879 612.323 75.6349 614.166 74.329C616.008 73.023 616.93 71.0962 616.93 68.5486C616.93 67.1142 616.63 65.9367 616.03 65.0161C615.451 64.0741 614.498 63.282 613.17 62.6397C611.841 61.9975 610.031 61.4194 607.738 60.9056L604.653 60.1991C600.154 59.2143 596.833 57.6515 594.69 55.5106C592.548 53.3697 591.477 50.533 591.477 47.0006C591.477 44.1318 592.173 41.6805 593.566 39.6466C594.958 37.6128 597.047 36.0499 599.832 34.9581C602.639 33.8662 606.089 33.3203 610.181 33.3203C612.259 33.3203 614.284 33.4594 616.255 33.7378C618.247 33.9947 620.079 34.3693 621.75 34.8617V40.7063C618.279 39.6359 614.498 39.1007 610.406 39.1007C602.5 39.1007 598.547 41.6162 598.547 46.6473C598.547 48.0389 598.804 49.2057 599.318 50.1477C599.854 51.0682 600.722 51.8497 601.921 52.4919C603.143 53.1342 604.803 53.6908 606.903 54.1618L609.956 54.8683C614.862 55.9388 618.429 57.5444 620.658 59.6853C622.886 61.8048 624 64.6308 624 68.1632C624 71.0748 623.272 73.5797 621.815 75.6777C620.358 77.7544 618.247 79.3387 615.483 80.4305C612.72 81.5224 609.399 82.0683 605.521 82.0683Z" fill="#1D328D"/>
<path d="M178.849 127.67V110.902H171.926V109.123H187.917V110.902H180.994V127.67H178.849Z" fill="#1D328D"/>
<path d="M198.758 125.941H209.694V127.67H196.626V109.123H209.568V110.852H198.758V117.293H208.289V119.01H198.758V125.941Z" fill="#1D328D"/>
<path d="M226.821 118.183L234.333 127.67H231.825L225.516 119.7L219.208 127.67H216.762L224.25 118.233L217.001 109.123H219.521L225.566 116.717L231.624 109.123H234.045L226.821 118.183Z" fill="#1D328D"/>
<path d="M246.928 127.67V110.902H240.005V109.123H255.996V110.902H249.073V127.67H246.928Z" fill="#1D328D"/>
<path d="M271.48 127.908C269.69 127.908 268.135 127.561 266.814 126.868C265.502 126.166 264.482 125.105 263.754 123.685C263.035 122.264 262.676 120.502 262.676 118.396C262.676 116.291 263.039 114.528 263.767 113.108C264.502 111.687 265.527 110.631 266.839 109.937C268.16 109.235 269.707 108.884 271.48 108.884C273.269 108.884 274.82 109.235 276.133 109.937C277.454 110.631 278.474 111.687 279.193 113.108C279.92 114.528 280.284 116.291 280.284 118.396C280.284 120.493 279.916 122.256 279.18 123.685C278.453 125.105 277.429 126.166 276.108 126.868C274.795 127.561 273.252 127.908 271.48 127.908ZM271.48 126.103C273.553 126.103 275.171 125.481 276.333 124.236C277.496 122.991 278.077 121.066 278.077 118.459C278.077 115.802 277.496 113.843 276.333 112.581C275.171 111.32 273.553 110.689 271.48 110.689C269.415 110.689 267.797 111.311 266.626 112.556C265.464 113.801 264.883 115.727 264.883 118.334C264.883 121.007 265.46 122.97 266.614 124.224C267.776 125.477 269.398 126.103 271.48 126.103Z" fill="#1D328D"/>
<path d="M303.298 109.461C304.251 109.277 305.154 109.143 306.007 109.06C306.868 108.968 307.775 108.922 308.728 108.922C311.395 108.922 313.402 109.436 314.748 110.463C316.102 111.483 316.78 113.07 316.78 115.226C316.78 117.323 316.094 118.91 314.723 119.988C313.36 121.057 311.249 121.592 308.389 121.592C307.545 121.592 306.563 121.546 305.442 121.454V127.67H303.298V109.461ZM308.402 119.938C309.89 119.938 311.094 119.766 312.014 119.424C312.934 119.081 313.603 118.568 314.021 117.882C314.447 117.189 314.66 116.308 314.66 115.238C314.66 113.634 314.184 112.456 313.23 111.704C312.277 110.952 310.822 110.576 308.866 110.576C307.637 110.576 306.496 110.672 305.442 110.865V119.75C306.395 119.875 307.382 119.938 308.402 119.938Z" fill="#1D328D"/>
<path d="M338.696 127.67L336.288 121.667H327.346L324.938 127.67H322.794L330.344 109.123H333.329L340.879 127.67H338.696ZM328.049 119.938H335.586L331.824 110.551L328.049 119.938Z" fill="#1D328D"/>
<path d="M362.268 127.67L356.01 120.013C355.817 120.021 355.521 120.025 355.119 120.025C354.25 120.025 353.192 119.975 351.946 119.875V127.67H349.827V109.524C351.741 109.123 353.61 108.922 355.433 108.922C357.23 108.922 358.706 109.114 359.86 109.499C361.014 109.874 361.875 110.468 362.444 111.278C363.021 112.088 363.309 113.141 363.309 114.436C363.309 115.89 362.883 117.064 362.03 117.958C361.177 118.843 359.914 119.445 358.242 119.762L364.726 127.67H362.268ZM351.946 118.208C352.573 118.267 353.108 118.309 353.552 118.334C354.003 118.359 354.551 118.371 355.195 118.371C357.318 118.371 358.861 118.054 359.822 117.419C360.792 116.784 361.277 115.802 361.277 114.474C361.277 113.513 361.077 112.748 360.675 112.18C360.282 111.612 359.672 111.203 358.844 110.952C358.016 110.702 356.921 110.576 355.558 110.576C354.831 110.576 354.195 110.606 353.652 110.664C353.108 110.714 352.54 110.793 351.946 110.902V118.208Z" fill="#1D328D"/>
<path d="M386.916 127.67L384.508 121.667H375.566L373.158 127.67H371.013L378.563 109.123H381.548L389.098 127.67H386.916ZM376.268 119.938H383.805L380.043 110.551L376.268 119.938Z" fill="#1D328D"/>
<path d="M425.019 127.67L422.611 121.667H413.668L411.26 127.67H409.116L416.666 109.123H419.651L427.201 127.67H425.019ZM414.371 119.938H421.908L418.146 110.551L414.371 119.938ZM417.142 107.518L419.877 103.959H422.222L419.149 107.518H417.142Z" fill="#1D328D"/>
<path d="M443.541 127.908C440.899 127.908 438.955 127.281 437.709 126.028C436.464 124.767 435.841 122.816 435.841 120.176V109.123H437.985V120.389C437.985 122.369 438.433 123.814 439.327 124.725C440.23 125.636 441.635 126.091 443.541 126.091C445.448 126.091 446.852 125.636 447.755 124.725C448.658 123.814 449.11 122.369 449.11 120.389V109.123H451.204V120.176C451.204 122.816 450.581 124.767 449.335 126.028C448.098 127.281 446.167 127.908 443.541 127.908Z" fill="#1D328D"/>
<path d="M467.227 127.808C465.447 127.808 463.707 127.699 462.01 127.482V109.524C462.863 109.34 463.791 109.198 464.794 109.097C465.806 108.997 466.772 108.947 467.691 108.947C471.111 108.947 473.695 109.737 475.442 111.316C477.19 112.886 478.063 115.247 478.063 118.396C478.063 121.588 477.16 123.956 475.354 125.502C473.557 127.039 470.848 127.808 467.227 127.808ZM467.654 126.016C470.421 126.016 472.478 125.397 473.824 124.161C475.179 122.916 475.856 120.99 475.856 118.384C475.856 115.785 475.179 113.86 473.824 112.606C472.478 111.353 470.438 110.727 467.704 110.727C466.642 110.727 465.459 110.831 464.155 111.04V125.803C465.15 125.945 466.316 126.016 467.654 126.016Z" fill="#1D328D"/>
<path d="M488.067 127.67V109.123H490.212V127.67H488.067Z" fill="#1D328D"/>
<path d="M509.044 127.908C507.254 127.908 505.699 127.561 504.378 126.868C503.065 126.166 502.045 125.105 501.318 123.685C500.599 122.264 500.239 120.502 500.239 118.396C500.239 116.291 500.603 114.528 501.331 113.108C502.066 111.687 503.091 110.631 504.403 109.937C505.724 109.235 507.271 108.884 509.044 108.884C510.833 108.884 512.384 109.235 513.696 109.937C515.018 110.631 516.038 111.687 516.757 113.108C517.484 114.528 517.848 116.291 517.848 118.396C517.848 120.493 517.48 122.256 516.744 123.685C516.017 125.105 514.992 126.166 513.671 126.868C512.359 127.561 510.816 127.908 509.044 127.908ZM509.044 126.103C511.117 126.103 512.735 125.481 513.897 124.236C515.059 122.991 515.64 121.066 515.64 118.459C515.64 115.802 515.059 113.843 513.897 112.581C512.735 111.32 511.117 110.689 509.044 110.689C506.978 110.689 505.361 111.311 504.19 112.556C503.028 113.801 502.447 115.727 502.447 118.334C502.447 121.007 503.024 122.97 504.177 124.224C505.34 125.477 506.962 126.103 509.044 126.103Z" fill="#1D328D"/>
<path d="M12.1853 55.0385V103.962C12.1853 105.583 11.5434 107.139 10.4008 108.286C9.25819 109.433 7.70851 110.077 6.09264 110.077C4.47677 110.077 2.92709 109.433 1.78449 108.286C0.641902 107.139 0 105.583 0 103.962V55.0385C0 53.4166 0.641902 51.8611 1.78449 50.7142C2.92709 49.5674 4.47677 48.9231 6.09264 48.9231C7.70851 48.9231 9.25819 49.5674 10.4008 50.7142C11.5434 51.8611 12.1853 53.4166 12.1853 55.0385ZM36.5558 0C34.94 0 33.3903 0.644297 32.2477 1.79115C31.1051 2.93801 30.4632 4.49348 30.4632 6.11538V152.885C30.4632 154.507 31.1051 156.062 32.2477 157.209C33.3903 158.356 34.94 159 36.5558 159C38.1717 159 39.7214 158.356 40.864 157.209C42.0066 156.062 42.6485 154.507 42.6485 152.885V6.11538C42.6485 4.49348 42.0066 2.93801 40.864 1.79115C39.7214 0.644297 38.1717 0 36.5558 0ZM67.019 24.4615C65.4032 24.4615 63.8535 25.1058 62.7109 26.2527C61.5683 27.3996 60.9264 28.955 60.9264 30.5769V128.423C60.9264 130.045 61.5683 131.6 62.7109 132.747C63.8535 133.894 65.4032 134.538 67.019 134.538C68.6349 134.538 70.1846 133.894 71.3272 132.747C72.4698 131.6 73.1117 130.045 73.1117 128.423V30.5769C73.1117 28.955 72.4698 27.3996 71.3272 26.2527C70.1846 25.1058 68.6349 24.4615 67.019 24.4615ZM97.4822 48.9231C95.8664 48.9231 94.3167 49.5674 93.1741 50.7142C92.0315 51.8611 91.3896 53.4166 91.3896 55.0385V103.962C91.3896 105.583 92.0315 107.139 93.1741 108.286C94.3167 109.433 95.8664 110.077 97.4822 110.077C99.0981 110.077 100.648 109.433 101.79 108.286C102.933 107.139 103.575 105.583 103.575 103.962V55.0385C103.575 53.4166 102.933 51.8611 101.79 50.7142C100.648 49.5674 99.0981 48.9231 97.4822 48.9231ZM127.945 36.6923C126.33 36.6923 124.78 37.3366 123.637 38.4835C122.495 39.6303 121.853 41.1858 121.853 42.8077V116.192C121.853 117.814 122.495 119.37 123.637 120.517C124.78 121.663 126.33 122.308 127.945 122.308C129.561 122.308 131.111 121.663 132.254 120.517C133.396 119.37 134.038 117.814 134.038 116.192V42.8077C134.038 41.1858 133.396 39.6303 132.254 38.4835C131.111 37.3366 129.561 36.6923 127.945 36.6923Z" fill="#1D328D"/>
</svg>
